<svg xmlns="http://www.w3.org/2000/svg" xmlns:xlink="http://www.w3.org/1999/xlink"><symbol id="icon-check"><path d="M.989 2.333L3.778 5l4.184-4" stroke="#fff"/></symbol><symbol id="icon-detective"><path d="M17.5 11.017c-.377 0-.684.358-.684.8 0 .44.307.8.684.8.377 0 .684-.36.684-.8 0-.442-.307-.8-.684-.8z"/><path d="M32.95 15.814h-2.66C28.886 11.132 26.852 2.922 23.166.598c-1.843-1.16-3.586-.35-4.24 1.297-.28.7-.836 1.068-1.427 1.068-.599 0-1.15-.376-1.426-1.067C15.442.305 13.74-.58 11.962.429 8.218 2.556 6.124 11.096 4.711 15.814H2.05C.918 15.814 0 16.887 0 18.212c0 1.322.92 2.398 2.05 2.398h30.9c1.132 0 2.05-1.073 2.05-2.398 0-1.322-.92-2.398-2.05-2.398zM7.111 12.616h7.654c.377 0 .683-.358.683-.8 0-.44-.306-.799-.683-.799H7.59c2.06-6.656 3.986-8.59 4.97-9.15 1.073-.608 1.956-.099 2.274.703.502 1.26 1.54 1.992 2.666 1.992 1.13 0 2.166-.735 2.666-1.992.327-.824 1.215-1.28 2.352-.565.989.624 2.908 2.622 4.892 9.012h-7.176c-.377 0-.683.358-.683.8 0 .441.306.8.683.8h7.654c.346 1.165.705 2.367.953 3.197H6.159c.248-.828.606-2.027.953-3.198zm25.837 6.396H2.051c-.377 0-.684-.36-.684-.8 0-.441.306-.8.684-.8h30.898c.377 0 .684.36.684.8 0 .441-.306.8-.684.8zm-16.815 4.796H5.195c-.377 0-.683.358-.683.8v3.197c0 3.967 2.76 7.195 6.152 7.195 2.57 0 4.846-1.849 5.75-4.634a2.28 2.28 0 012.171 0C19.49 33.15 21.765 35 24.335 35c3.393 0 6.153-3.228 6.153-7.195v-3.198c0-.441-.306-.8-.683-.8H18.867c-.377 0-.683.359-.683.8v.8h-1.368v-.8c0-.441-.306-.799-.683-.799zm-5.469 9.593c-2.638 0-4.785-2.51-4.785-5.596v-2.398h9.57v2.398c0 3.094-2.135 5.596-4.785 5.596zm8.887-7.994h9.57v2.398c0 3.086-2.146 5.596-4.785 5.596-2.657 0-4.785-2.51-4.785-5.596v-2.398zm-1.367 1.599v.8c0 .255.012.51.035.762a3.432 3.432 0 00-1.438 0 8.52 8.52 0 00.035-.763v-.8h1.368z"/><path d="M10.664 30.203c-1.13 0-2.05-1.076-2.05-2.398 0-.442-.307-.8-.684-.8-.378 0-.684.358-.684.8 0 2.204 1.533 3.997 3.418 3.997.378 0 .684-.358.684-.8 0-.44-.306-.799-.684-.799zm13.672 1.599c1.885 0 3.418-1.793 3.418-3.997 0-.442-.306-.8-.684-.8-.377 0-.683.358-.683.8 0 1.322-.92 2.398-2.051 2.398-.378 0-.684.358-.684.8 0 .441.306.8.684.8z"/></symbol><symbol id="icon-email"><path d="M18.058 0H2.946C1.596 0 .5 1.441.5 3.214v13.572C.5 18.56 1.597 20 2.946 20h15.108c1.35 0 2.446-1.441 2.446-3.214V3.22C20.504 1.446 19.407 0 18.058 0zm1.329 16.786c0 .963-.596 1.746-1.329 1.746H2.946c-.733 0-1.329-.783-1.329-1.746V3.22c0-.962.596-1.745 1.329-1.745h15.108c.733 0 1.329.783 1.329 1.745v13.567h.004z" fill="#00B2FF"/><path d="M13.113 9.831l4.892-5.764c.227-.271.248-.734.041-1.038-.207-.3-.559-.326-.79-.055L10.51 10.93 9.194 9.386c-.004-.006-.008-.011-.008-.017a.946.946 0 00-.09-.103L3.74 2.969c-.231-.272-.583-.245-.79.06-.207.304-.186.767.045 1.038l4.95 5.813-4.929 6.063c-.223.278-.236.74-.025 1.04.112.151.261.233.41.233a.495.495 0 00.38-.196l5.004-6.15 1.357 1.593a.49.49 0 00.373.185.49.49 0 00.372-.19l1.395-1.642 4.974 6.21a.493.493 0 00.384.2.505.505 0 00.406-.228c.211-.293.203-.76-.02-1.038l-4.914-6.13z" fill="#00B2FF"/></symbol><symbol id="icon-facebook"><path fill-rule="evenodd" clip-rule="evenodd" d="M30 15c0-8.284-6.715-15-15-15S0 6.716 0 15c0 8.285 6.715 15 15 15s15-6.715 15-15zm-11.24-4.673h-1.934c-.52 0-.886.44-.886.99v.861h2.761l-.447 2.797H15.94v7.496h-2.825v-7.496H11.24v-2.797h1.875v-1.426h.005c.05-1.625.614-3.173 3.368-3.27V7.47h2.272v2.856z" fill="#F8FDFF"/></symbol><symbol id="icon-hired"><path d="M31.264 27.893a3.132 3.132 0 00.597-1.842v-4.108a.684.684 0 00-.684-.683h-3.055a2.564 2.564 0 00-2.561 2.561v2.23c0 .687.222 1.323.596 1.841a4.402 4.402 0 00-1.336.445 5.817 5.817 0 00-4.294-2.56l-.021-.005a4.02 4.02 0 001.03-2.69V17.5a.684.684 0 00-.684-.684H16.7a3.24 3.24 0 00-3.236 3.236v3.03a4.02 4.02 0 001.03 2.69l-.021.005a5.816 5.816 0 00-4.294 2.56c-.42-.22-.87-.369-1.337-.445a3.132 3.132 0 00.597-1.84v-4.109a.684.684 0 00-.684-.683H5.7a2.564 2.564 0 00-2.56 2.561v2.23c0 .688.221 1.324.596 1.842A4.464 4.464 0 000 32.291v2.025c0 .378.306.684.684.684h33.632a.684.684 0 00.684-.684v-2.025a4.464 4.464 0 00-3.736-4.398zM4.506 23.821c0-.658.536-1.194 1.194-1.194h2.372v.832a.74.74 0 01-.74.74H4.506v-.378zm0 1.746h2.826c.26 0 .51-.048.74-.135v.62c0 .982-.8 1.782-1.783 1.782-.983 0-1.783-.8-1.783-1.783v-.484zm2.224 3.634l-.44.44-.442-.44h.882zm2.468 2.363v2.069h-7.83V32.29a3.095 3.095 0 012.588-3.049l1.85 1.85a.684.684 0 00.966 0l1.85-1.85c.327.053.642.158.934.312a5.784 5.784 0 00-.358 2.01zm8.302-5.813a2.672 2.672 0 01-2.668-2.668v-.904h4.085c.453 0 .88-.115 1.252-.319v1.223a2.672 2.672 0 01-2.669 2.669zm1.192 1.368L17.5 28.31l-1.192-1.191h2.384zm-3.86-7.067a1.87 1.87 0 011.868-1.868h3.469v1.377c0 .69-.562 1.251-1.252 1.251H14.83v-.76zm9.603 13.58h-13.87v-1.366h4.451a.684.684 0 100-1.368h-4.4a4.455 4.455 0 013.8-3.738l2.6 2.6a.682.682 0 00.967 0l2.601-2.6a4.451 4.451 0 013.85 4.404v2.069zm2.493-9.81c0-.66.536-1.195 1.194-1.195h2.372v.832a.74.74 0 01-.74.74h-2.826v-.378zm0 1.745h2.825c.26 0 .51-.048.74-.135v.62c0 .982-.799 1.782-1.782 1.782s-1.783-.8-1.783-1.783v-.484zm2.224 3.634l-.441.44-.44-.44h.88zm-3.35 4.432v-2.069c0-.706-.127-1.383-.358-2.01.292-.154.606-.26.933-.312l1.85 1.85a.684.684 0 00.967 0l1.85-1.85a3.095 3.095 0 012.589 3.05v1.34h-7.831zM20.869 4.466a.684.684 0 00-.967 0l-3.354 3.355-1.45-1.45a.684.684 0 10-.967.967l1.933 1.933a.684.684 0 00.967 0l3.838-3.838a.684.684 0 000-.966z"/><path d="M20.295.593a.684.684 0 00-.557 1.248 5.51 5.51 0 013.264 5.028A5.508 5.508 0 0117.5 12.37a5.508 5.508 0 01-5.502-5.501 5.515 5.515 0 013.24-5.017.683.683 0 10-.563-1.246 6.885 6.885 0 00-4.044 6.263 6.877 6.877 0 006.869 6.868 6.876 6.876 0 006.869-6.868A6.88 6.88 0 0020.295.593z"/><path d="M17.524 0H17.5a.684.684 0 000 1.367h.021A.684.684 0 0017.524 0zm.459 31.099a.688.688 0 00-.483-.2.689.689 0 00-.483.2.689.689 0 00-.2.483.684.684 0 00.683.683.688.688 0 00.684-.683.689.689 0 00-.2-.483z"/></symbol><symbol id="icon-item-arrow"><path d="M.476 8.81L4.286 5 .476 1.19" fill="white" stroke-linejoin="round"/></symbol><symbol id="icon-logo-desktop"><path d="M78.96 23.325a4.06 4.06 0 00-.085-.867 1.66 1.66 0 00-.367-.72c-.179-.22-.443-.44-.793-.66a9.215 9.215 0 00-1.343-.683c-.66-.277-1.298-.57-1.916-.879a9.005 9.005 0 01-1.673-1.098 4.772 4.772 0 01-1.184-1.465c-.285-.57-.427-1.237-.427-2.002 0-.749.134-1.428.403-2.039a4.443 4.443 0 011.172-1.562 5.35 5.35 0 011.77-1.014c.683-.236 1.444-.354 2.282-.354 1.14 0 2.124.236 2.954.708a4.946 4.946 0 011.941 1.941c.464.822.696 1.766.696 2.832h-3.564c0-.504-.074-.948-.22-1.33a1.843 1.843 0 00-.671-.916c-.31-.22-.708-.33-1.197-.33-.455 0-.834.094-1.135.281a1.675 1.675 0 00-.66.745c-.138.31-.207.66-.207 1.05 0 .293.07.557.208.793.146.228.346.436.598.623.252.179.55.354.891.525.35.17.732.337 1.148.5a13.4 13.4 0 012.136 1.05 6.576 6.576 0 011.55 1.27c.415.463.728.988.94 1.574.212.586.317 1.254.317 2.002 0 .74-.13 1.416-.39 2.027a4.328 4.328 0 01-1.111 1.562 5.147 5.147 0 01-1.77 1.001c-.684.236-1.449.354-2.295.354-.822 0-1.6-.114-2.332-.342a5.698 5.698 0 01-1.94-1.062 4.994 4.994 0 01-1.307-1.819c-.317-.74-.476-1.615-.476-2.624h3.577c0 .537.053.997.159 1.38.106.374.268.675.488.903.22.22.488.386.806.5.325.106.695.159 1.11.159.472 0 .847-.09 1.123-.269.285-.179.489-.419.61-.72.123-.301.184-.643.184-1.025zm9.253-5.799V28h-3.43V14.792h3.222l.208 2.734zm-.488 3.418l-.94.025c-.017-.928.065-1.783.244-2.564.179-.781.447-1.46.806-2.038a3.953 3.953 0 011.379-1.343c.553-.317 1.2-.476 1.94-.476.48 0 .925.09 1.331.268.407.171.761.444 1.062.818.302.366.533.847.696 1.44.163.587.244 1.29.244 2.112V28H91.07v-8.398c0-.586-.057-1.034-.17-1.343-.115-.318-.277-.537-.489-.66-.211-.13-.472-.195-.781-.195-.326 0-.61.09-.855.269a1.952 1.952 0 00-.598.757c-.146.317-.26.691-.341 1.123-.074.431-.11.895-.11 1.391zm6.433-.341l-1.233.158c-.016-.87.06-1.68.232-2.429.17-.757.435-1.416.793-1.977a3.959 3.959 0 011.343-1.331c.545-.317 1.176-.476 1.892-.476.537 0 1.025.09 1.465.268.44.18.814.468 1.123.867.317.39.557.907.72 1.55.171.643.257 1.425.257 2.344V28h-3.43v-8.41c0-.595-.058-1.05-.172-1.368-.114-.317-.276-.533-.488-.647a1.575 1.575 0 00-.757-.17c-.293 0-.549.08-.769.243-.211.163-.39.391-.537.684a3.703 3.703 0 00-.33 1.013c-.073.383-.11.802-.11 1.258zm14.99 4.357v-6.103c0-.399-.049-.716-.147-.952a.941.941 0 00-.415-.513 1.202 1.202 0 00-.659-.17c-.293 0-.537.06-.732.182a1.125 1.125 0 00-.44.525c-.089.228-.134.5-.134.818h-3.43c0-.57.11-1.107.33-1.611.219-.513.541-.96.964-1.343a4.68 4.68 0 011.538-.916c.594-.22 1.261-.33 2.002-.33.879 0 1.66.151 2.344.452a3.492 3.492 0 011.623 1.404c.399.643.598 1.477.598 2.503v5.884c0 .74.037 1.342.11 1.806.082.464.2.863.354 1.197V28h-3.442c-.155-.366-.273-.822-.354-1.367a12.785 12.785 0 01-.11-1.673zm.415-5.029l.012 2.05h-1.257c-.326 0-.61.054-.855.16a1.644 1.644 0 00-.598.451 1.853 1.853 0 00-.366.66c-.073.252-.11.52-.11.805 0 .318.045.586.134.806.09.22.224.386.403.5.179.114.391.171.635.171.374 0 .7-.077.977-.232.276-.154.48-.342.61-.561.138-.22.183-.424.134-.61l.781 1.33a5.964 5.964 0 01-.402.94 3.994 3.994 0 01-.623.903 3.013 3.013 0 01-.94.684c-.366.17-.801.256-1.306.256a3.93 3.93 0 01-1.941-.488 3.625 3.625 0 01-1.392-1.367c-.333-.586-.5-1.282-.5-2.088 0-.667.106-1.27.317-1.806.22-.546.546-1.005.977-1.38.431-.382.976-.675 1.636-.879.659-.203 1.432-.305 2.319-.305h1.355zm8.972-2.197V28h-3.418V14.792h3.223l.195 2.942zm3.113-3.04l-.049 3.406a4.323 4.323 0 00-.561-.073 7.424 7.424 0 00-.562-.025c-.382 0-.708.062-.976.184a1.628 1.628 0 00-.672.524 2.428 2.428 0 00-.39.855c-.09.342-.143.728-.159 1.16l-.647-.245c0-.862.065-1.652.195-2.368.138-.724.342-1.35.611-1.88.268-.537.59-.952.964-1.245.382-.293.814-.44 1.294-.44.163 0 .333.017.512.05.188.024.334.057.44.097zm8.118.098v2.576h-6.739v-2.576h6.739zm-5.188-3.26h3.405v12.44c0 .366.037.647.11.842.074.195.183.334.33.415.154.073.358.11.61.11.171 0 .33-.008.476-.024a2.33 2.33 0 00.33-.074v2.674a4.748 4.748 0 01-.855.244 5.575 5.575 0 01-1.049.085c-.684 0-1.278-.13-1.783-.39-.496-.26-.883-.676-1.159-1.246-.277-.577-.415-1.334-.415-2.27V11.533zM142.241 28h-3.137l.024-2.954h3.113c.863 0 1.534-.155 2.014-.464.481-.31.818-.797 1.014-1.465.203-.667.305-1.542.305-2.624v-2.771c0-.822-.053-1.518-.159-2.088-.106-.578-.285-1.041-.537-1.391a2.23 2.23 0 00-1.013-.794c-.423-.17-.948-.256-1.575-.256h-3.247v-2.966h3.247c1.025 0 1.957.166 2.795.5a5.913 5.913 0 012.161 1.465c.602.635 1.066 1.42 1.392 2.356.325.936.488 2.002.488 3.198v2.747c0 1.204-.163 2.27-.488 3.198-.326.928-.79 1.713-1.392 2.356a5.852 5.852 0 01-2.161 1.453c-.846.333-1.794.5-2.844.5zm-1.062-17.773V28h-3.576V10.227h3.576zm15.711 18.017c-.904 0-1.705-.138-2.405-.415a4.754 4.754 0 01-1.758-1.196 5.375 5.375 0 01-1.099-1.917c-.252-.748-.378-1.603-.378-2.563v-1.087c0-1.074.122-2.014.366-2.82.244-.813.59-1.497 1.038-2.05a4.096 4.096 0 011.648-1.233c.659-.277 1.404-.415 2.234-.415.83 0 1.558.138 2.185.415a3.813 3.813 0 011.574 1.22c.415.538.729 1.205.94 2.003.212.797.318 1.725.318 2.783v1.562h-8.85v-2.404h5.493v-.306c0-.537-.057-.984-.171-1.343-.114-.366-.293-.638-.537-.817-.244-.18-.57-.269-.977-.269-.342 0-.63.07-.866.208a1.426 1.426 0 00-.562.647c-.138.293-.24.675-.305 1.147a12.268 12.268 0 00-.098 1.672v1.087c0 .61.053 1.123.159 1.538.106.407.26.74.464 1 .211.253.468.436.769.55.301.106.651.159 1.05.159.602 0 1.143-.106 1.623-.317.488-.22.903-.517 1.245-.892l1.367 2.076c-.236.309-.561.618-.976.927a5.31 5.31 0 01-1.489.757c-.578.195-1.246.293-2.002.293zm10.363-2.88l2.124-10.572h3.565L169.316 28h-2.136l.073-2.637zm-1.257-10.572l2.161 10.583.036 2.625h-2.148l-3.626-13.208h3.577zm12.183 0V28h-3.43V14.792h3.43zm-3.589-3.418c0-.529.167-.964.5-1.306.342-.35.798-.525 1.368-.525.577 0 1.033.175 1.367.525.333.342.5.777.5 1.306 0 .52-.171.956-.513 1.306-.333.342-.781.513-1.342.513-.578 0-1.038-.171-1.38-.513-.333-.35-.5-.785-.5-1.306zM185.662 25.4c.317 0 .59-.065.817-.195.236-.13.416-.342.538-.635.122-.293.187-.672.195-1.135h3.21c0 .992-.211 1.851-.634 2.575a4.345 4.345 0 01-1.685 1.66c-.7.383-1.493.574-2.38.574-.887 0-1.661-.142-2.32-.427a4.142 4.142 0 01-1.635-1.245c-.424-.546-.745-1.209-.965-1.99-.211-.79-.317-1.693-.317-2.71v-.964c0-1.001.106-1.896.317-2.686.22-.79.541-1.457.965-2.002a4.16 4.16 0 011.623-1.245c.659-.285 1.432-.427 2.319-.427.953 0 1.779.2 2.478.598.7.39 1.246.968 1.636 1.733.399.765.598 1.71.598 2.832h-3.21c-.008-.504-.069-.923-.183-1.257-.106-.342-.273-.602-.501-.781-.219-.187-.512-.28-.879-.28-.382 0-.691.08-.927.243a1.46 1.46 0 00-.525.684c-.114.293-.191.659-.232 1.099-.041.439-.061.935-.061 1.489v.964c0 .594.016 1.11.049 1.55.04.432.118.798.232 1.099.122.293.297.513.524.66.236.146.554.219.953.219zm12.048 2.844c-.903 0-1.705-.138-2.405-.415a4.762 4.762 0 01-1.758-1.196 5.35 5.35 0 01-1.098-1.917c-.253-.748-.379-1.603-.379-2.563v-1.087c0-1.074.122-2.014.367-2.82.244-.813.59-1.497 1.037-2.05a4.103 4.103 0 011.648-1.233c.659-.277 1.404-.415 2.234-.415.83 0 1.558.138 2.185.415a3.81 3.81 0 011.575 1.22c.415.538.728 1.205.94 2.003.211.797.317 1.725.317 2.783v1.562h-8.85v-2.404h5.493v-.306c0-.537-.057-.984-.171-1.343-.114-.366-.293-.638-.537-.817-.244-.18-.57-.269-.976-.269-.342 0-.631.07-.867.208-.236.138-.423.354-.562.647-.138.293-.24.675-.305 1.147a12.268 12.268 0 00-.098 1.672v1.087c0 .61.053 1.123.159 1.538.106.407.261.74.464 1 .212.253.468.436.769.55.301.106.651.159 1.05.159.602 0 1.143-.106 1.623-.317a3.74 3.74 0 001.246-.892l1.367 2.076c-.236.309-.562.618-.977.927-.415.31-.911.562-1.489.757-.578.195-1.245.293-2.002.293z" fill="#F2F5F7"/><path d="M72.566 45.309l1.723-5.649h1.512l-2.543 7.307a4.986 4.986 0 01-.229.51 2.313 2.313 0 01-.369.521 1.637 1.637 0 01-.556.404 1.877 1.877 0 01-.81.158 1.8 1.8 0 01-.362-.035 5.785 5.785 0 01-.323-.064l-.005-1.078a5.127 5.127 0 00.28.017c.235 0 .43-.029.587-.087a.812.812 0 00.38-.27c.102-.125.188-.293.258-.504l.457-1.23zm-.972-5.649l1.506 4.746.252 1.489-.979.252-2.303-6.487h1.524zm8.783 4.63l1.887-4.63h1.224L80.858 46h-.962l-2.624-6.34h1.224l1.881 4.63zm-2.244-4.63V46H76.72v-6.34h1.412zM82.62 46v-6.34h1.418V46H82.62zm7.33-3.691v1.113h-3.28v-1.113h3.281zm-2.87-2.649V46h-1.413v-6.34h1.412zm3.89 0V46h-1.412v-6.34h1.412zm2.554 2.016h1.87c.546 0 1.011.092 1.394.275.383.184.674.44.873.768.203.324.305.695.305 1.113 0 .309-.057.596-.17.861-.113.262-.281.49-.504.686a2.324 2.324 0 01-.809.457 3.33 3.33 0 01-1.09.164h-2.806v-6.34h1.418v5.22h1.388c.282 0 .506-.048.674-.146a.872.872 0 00.364-.38 1.147 1.147 0 000-1.008.898.898 0 00-.364-.393c-.168-.101-.392-.152-.674-.152h-1.869v-1.125zm6.938-2.016V46H99.05v-6.34h1.412zm4.465 6.457a3.39 3.39 0 01-1.272-.228 2.812 2.812 0 01-.961-.65 2.884 2.884 0 01-.603-.98 3.418 3.418 0 01-.211-1.212v-.234c0-.497.072-.946.217-1.348.144-.403.345-.746.603-1.031.258-.29.563-.51.914-.662a2.846 2.846 0 011.143-.229c.453 0 .849.076 1.189.229.34.152.621.367.844.644.227.274.395.6.504.979.113.378.17.796.17 1.253v.604h-4.899v-1.014h3.504v-.111a1.981 1.981 0 00-.152-.715 1.22 1.22 0 00-.416-.539c-.188-.137-.438-.205-.75-.205-.234 0-.443.05-.627.152-.18.098-.33.24-.451.428a2.244 2.244 0 00-.281.68 3.793 3.793 0 00-.094.885v.234c0 .277.037.535.111.773.078.235.192.44.34.615.148.176.328.315.539.417.211.097.451.146.721.146.34 0 .642-.068.908-.205.266-.137.496-.33.691-.58l.745.72a2.9 2.9 0 01-.534.575c-.218.18-.486.326-.802.44-.313.112-.676.17-1.09.17zm9.568-6.457V46h-1.418v-6.34h1.418zm2.08 0v1.113h-5.543V39.66h5.543zm3.305 6.457a3.39 3.39 0 01-1.272-.228 2.812 2.812 0 01-.961-.65 2.9 2.9 0 01-.603-.98 3.418 3.418 0 01-.211-1.212v-.234c0-.497.072-.946.217-1.348.144-.403.345-.746.603-1.031.258-.29.563-.51.914-.662a2.846 2.846 0 011.143-.229c.453 0 .85.076 1.189.229.34.152.621.367.844.644.227.274.395.6.504.979.113.378.17.796.17 1.253v.604h-4.898v-1.014h3.503v-.111a1.96 1.96 0 00-.152-.715 1.213 1.213 0 00-.416-.539c-.187-.137-.437-.205-.75-.205-.234 0-.443.05-.627.152-.18.098-.33.24-.451.428a2.244 2.244 0 00-.281.68 3.793 3.793 0 00-.094.885v.234c0 .277.037.535.111.773.078.235.192.44.34.615.149.176.328.315.539.417.211.097.451.146.721.146.34 0 .642-.068.908-.205.266-.137.496-.33.691-.58l.745.72a2.9 2.9 0 01-.534.575c-.218.18-.486.326-.802.44-.313.112-.676.17-1.09.17zm4.717-6.457l1.207 2.104 1.23-2.104h1.553l-1.922 3.112L128.664 46h-1.553l-1.289-2.191L124.533 46h-1.558l1.992-3.228-1.916-3.112h1.547zm9.287 2.649v1.113h-3.281v-1.113h3.281zm-2.871-2.649V46h-1.412v-6.34h1.412zm3.89 0V46h-1.412v-6.34h1.412zm1.237 3.24v-.134c0-.457.066-.881.199-1.272.133-.394.324-.736.574-1.025.254-.293.563-.52.926-.68a3.011 3.011 0 011.242-.246c.465 0 .879.082 1.242.246.367.16.678.387.932.68.254.289.447.63.58 1.025.133.39.199.815.199 1.272v.134c0 .457-.066.881-.199 1.272-.133.39-.326.732-.58 1.025a2.693 2.693 0 01-.926.68c-.363.16-.775.24-1.236.24-.465 0-.881-.08-1.248-.24a2.684 2.684 0 01-.926-.68 3.044 3.044 0 01-.58-1.025 3.922 3.922 0 01-.199-1.272zm1.412-.134v.134c0 .285.029.555.088.809.058.254.15.476.275.668.125.191.285.342.48.451.196.11.428.164.698.164.261 0 .488-.054.679-.164.196-.11.356-.26.481-.451.125-.192.217-.414.275-.668.063-.254.094-.524.094-.809v-.134c0-.282-.031-.547-.094-.797a2.032 2.032 0 00-.281-.674 1.346 1.346 0 00-.48-.457 1.324 1.324 0 00-.686-.17 1.35 1.35 0 00-.691.17c-.192.11-.35.262-.475.457a2.11 2.11 0 00-.275.674c-.059.25-.088.515-.088.797zm9.832-3.106v1.125h-3.094V39.66h3.094zm1.107 0V46h-1.412v-6.34h1.412zm-4.547 0h1.395l-.17 3.135c-.024.465-.07.875-.141 1.23a4.105 4.105 0 01-.269.909c-.114.25-.252.453-.416.609a1.544 1.544 0 01-.574.346 2.294 2.294 0 01-.739.111h-.439l-.006-1.16.223-.018a.868.868 0 00.375-.111.849.849 0 00.269-.281 1.55 1.55 0 00.188-.47c.05-.19.089-.417.117-.679.031-.261.054-.566.07-.914l.117-2.707zm5.778 3.24v-.134c0-.457.066-.881.199-1.272.133-.394.324-.736.574-1.025.254-.293.563-.52.926-.68a3.011 3.011 0 011.242-.246c.465 0 .879.082 1.242.246.367.16.678.387.932.68.254.289.447.63.58 1.025.133.39.199.815.199 1.272v.134c0 .457-.066.881-.199 1.272-.133.39-.326.732-.58 1.025a2.693 2.693 0 01-.926.68c-.363.16-.775.24-1.236.24-.465 0-.881-.08-1.248-.24a2.684 2.684 0 01-.926-.68 3.044 3.044 0 01-.58-1.025 3.922 3.922 0 01-.199-1.272zm1.412-.134v.134c0 .285.029.555.088.809.058.254.15.476.275.668.125.191.285.342.481.451.195.11.427.164.697.164a1.336 1.336 0 001.16-.615c.125-.192.217-.414.275-.668.063-.254.094-.524.094-.809v-.134c0-.282-.031-.547-.094-.797a2.032 2.032 0 00-.281-.674 1.346 1.346 0 00-.48-.457 1.324 1.324 0 00-.686-.17 1.35 1.35 0 00-.691.17c-.192.11-.35.262-.475.457a2.11 2.11 0 00-.275.674c-.059.25-.088.515-.088.797zm9.885-3.106v1.125h-2.766V46h-1.412v-6.34h4.178zm2.279 4.278l2.49-4.278h1.412V46h-1.412v-4.283L163.299 46h-1.412v-6.34h1.412v4.278zm6.855 0l2.491-4.278h1.412V46h-1.412v-4.283L170.154 46h-1.412v-6.34h1.412v4.278z" fill="#fff" fill-opacity=".7"/><path d="M33.917 14.666c1.193 0 2.201.77 2.581 1.834h9.504a2.746 2.746 0 012.581-1.834 2.753 2.753 0 012.75 2.75 2.753 2.753 0 01-2.75 2.75 2.746 2.746 0 01-2.581-1.833h-9.505a2.746 2.746 0 01-2.581 1.833 2.753 2.753 0 01-2.75-2.75 2.754 2.754 0 012.75-2.75zm14.666 3.667a.918.918 0 000-1.833.918.918 0 000 1.833zm-14.666 0a.918.918 0 000-1.833.918.918 0 000 1.833z" fill="#00B2FF"/><path d="M26.583 20.335v-5.669c0-.243.097-.476.269-.648l3.667-3.666a.914.914 0 01.648-.269h2.918a2.746 2.746 0 012.582-1.833 2.753 2.753 0 012.75 2.75 2.753 2.753 0 01-2.75 2.75 2.746 2.746 0 01-2.582-1.834h-2.539l-3.13 3.13v5.289a2.746 2.746 0 011.834 2.581 2.753 2.753 0 01-2.75 2.75 2.753 2.753 0 01-2.75-2.75c0-1.193.77-2.201 1.833-2.581zm10.084-8.419a.918.918 0 000-1.833.918.918 0 000 1.833zM27.5 23.834a.918.918 0 000-1.833.918.918 0 000 1.833zm-17.417-.001c.424 0 .82.104 1.178.276l1.572-1.572V13.75c0-.244.097-.477.269-.648l9.174-9.174A2.705 2.705 0 0122 2.75 2.753 2.753 0 0124.75 0a2.753 2.753 0 012.75 2.75 2.753 2.753 0 01-2.75 2.75c-.424 0-.82-.104-1.178-.276l-8.905 8.905v8.787a.913.913 0 01-.269.648l-1.84 1.841c.172.358.275.754.275 1.178a2.753 2.753 0 01-2.75 2.75 2.753 2.753 0 01-2.75-2.75 2.753 2.753 0 012.75-2.75zM24.75 3.667a.918.918 0 000-1.834.918.918 0 000 1.834zM10.083 27.5a.918.918 0 000-1.834.918.918 0 000 1.834zm-8.25-14.498V9.167c0-.244.097-.477.269-.649l6.417-6.416a.914.914 0 01.648-.269h4.752A2.746 2.746 0 0116.5 0a2.753 2.753 0 012.75 2.75A2.753 2.753 0 0116.5 5.5a2.746 2.746 0 01-2.581-1.833H9.546l-5.88 5.879v3.456A2.746 2.746 0 015.5 15.583a2.753 2.753 0 01-2.75 2.75A2.753 2.753 0 010 15.583c0-1.193.77-2.202 1.833-2.581zM16.5 3.667a.918.918 0 000-1.834.918.918 0 000 1.834zM2.75 16.5a.918.918 0 000-1.834.918.918 0 000 1.834zm11.916 33.169V36.497a2.747 2.747 0 01-1.833-2.58 2.753 2.753 0 012.75-2.75c1.194 0 2.202.768 2.582 1.832h9.504a2.746 2.746 0 012.581-1.833c1.194 0 2.202.77 2.581 1.833h5.29l3.405-3.405a2.705 2.705 0 01-.276-1.178 2.753 2.753 0 012.75-2.75 2.753 2.753 0 012.75 2.75 2.753 2.753 0 01-2.75 2.75c-.423 0-.82-.103-1.178-.276l-3.674 3.674a.914.914 0 01-.648.269h-5.669a2.746 2.746 0 01-2.581 1.833 2.746 2.746 0 01-2.581-1.833h-9.505a2.747 2.747 0 01-1.665 1.664V49.67a2.746 2.746 0 011.833 2.581 2.753 2.753 0 01-2.75 2.75 2.753 2.753 0 01-2.75-2.75c0-1.193.77-2.202 1.834-2.581zM44 29.333a.918.918 0 000-1.833.917.917 0 000 1.833zm-13.75 5.5a.918.918 0 000-1.834.917.917 0 000 1.834zM15.583 53.166a.918.918 0 000-1.833.918.918 0 000 1.833zm0-18.333a.918.918 0 000-1.834.918.918 0 000 1.834z" fill="#00B2FF"/><path d="M19.25 18.502v-2.919a.91.91 0 01.269-.648L30.526 3.928a2.705 2.705 0 01-.276-1.178A2.753 2.753 0 0133 0c1.194 0 2.202.77 2.581 1.833h3.836c.506 0 .916.41.916.917v2.37l3.406 3.406a2.705 2.705 0 011.178-.276 2.753 2.753 0 012.75 2.75 2.753 2.753 0 01-2.75 2.75 2.753 2.753 0 01-2.75-2.75c0-.424.103-.82.276-1.178l-3.674-3.674A.913.913 0 0138.5 5.5V3.667h-2.919A2.746 2.746 0 0133 5.5a2.71 2.71 0 01-1.178-.276L21.083 15.963v2.539a2.746 2.746 0 011.834 2.581 2.753 2.753 0 01-2.75 2.75 2.753 2.753 0 01-2.75-2.75c0-1.193.769-2.202 1.833-2.581zm25.667-6.585a.918.918 0 000-1.834.918.918 0 000 1.833zM33 3.666a.918.918 0 000-1.834.918.918 0 000 1.834zM20.167 22a.917.917 0 10-.002-1.835.917.917 0 00.002 1.835z" fill="#00B2FF"/><path d="M22 25.666c1.194 0 2.202.77 2.581 1.834h10.79l5.23-5.232A.914.914 0 0141.25 22h9.704l2.213-2.213v-7.491l-7.072-7.072a2.705 2.705 0 01-1.178.276 2.753 2.753 0 01-2.75-2.75A2.753 2.753 0 0144.917 0a2.753 2.753 0 012.75 2.75c0 .423-.104.82-.276 1.178l7.34 7.34a.913.913 0 01.269.648v8.25a.913.913 0 01-.269.648l-2.75 2.75a.914.914 0 01-.648.269H41.63l-5.232 5.231a.914.914 0 01-.648.269H24.581A2.746 2.746 0 0122 31.166a2.753 2.753 0 01-2.75-2.75 2.753 2.753 0 012.75-2.75zM44.917 1.833a.918.918 0 000 1.834.918.918 0 000-1.834zM22 29.333a.918.918 0 000-1.833.918.918 0 000 1.833zM2.75 22c.424 0 .82.103 1.178.276l3.405-3.406v-5.289A2.746 2.746 0 015.5 11a2.753 2.753 0 012.75-2.75A2.753 2.753 0 0111 11c0 1.193-.77 2.202-1.833 2.581v5.669a.913.913 0 01-.269.648l-3.674 3.674c.172.358.276.754.276 1.178 0 1.193-.77 2.201-1.833 2.58v.707L10.73 35.1a.912.912 0 01.269.648v1.086a2.746 2.746 0 011.833 2.581A2.746 2.746 0 0111 41.997v2.172a2.746 2.746 0 011.833 2.581 2.753 2.753 0 01-2.75 2.75 2.753 2.753 0 01-2.75-2.75c0-1.193.77-2.202 1.834-2.581v-2.172a2.746 2.746 0 01-1.834-2.581c0-1.194.77-2.202 1.834-2.581v-.706l-7.065-7.065a.913.913 0 01-.269-.648v-1.085A2.746 2.746 0 010 24.75 2.753 2.753 0 012.75 22zm5.5-10.084a.918.918 0 000-1.833.918.918 0 000 1.833zm1.833 35.75a.918.918 0 000-1.833.918.918 0 000 1.833zm0-7.333a.918.918 0 000-1.834.918.918 0 000 1.834zM2.75 25.666a.918.918 0 000-1.833.918.918 0 000 1.833z" fill="#00B2FF"/></symbol><symbol id="icon-logo-mobile"><path d="M21.584 9.333c.76 0 1.4.49 1.642 1.167h6.048a1.748 1.748 0 011.643-1.167c.965 0 1.75.785 1.75 1.75s-.785 1.75-1.75 1.75c-.76 0-1.401-.49-1.643-1.167h-6.048a1.748 1.748 0 01-1.643 1.167c-.965 0-1.75-.785-1.75-1.75s.786-1.75 1.75-1.75zm9.333 2.333a.584.584 0 10-.001-1.167.584.584 0 00.001 1.167zm-9.333 0a.584.584 0 10-.001-1.167.584.584 0 000 1.167z" fill="#00B2FF"/><path d="M16.917 12.94V9.334c0-.155.062-.303.171-.412l2.334-2.334a.578.578 0 01.412-.17h1.857a1.748 1.748 0 011.643-1.167c.965 0 1.75.785 1.75 1.75s-.785 1.75-1.75 1.75c-.76 0-1.401-.49-1.643-1.167h-1.615l-1.992 1.992v3.366a1.748 1.748 0 011.167 1.642c0 .965-.786 1.75-1.75 1.75-.965 0-1.75-.785-1.75-1.75 0-.76.49-1.401 1.166-1.643zm6.417-5.357a.584.584 0 10-.001-1.168.584.584 0 00.001 1.168zm-5.833 7.583A.584.584 0 1017.5 14a.584.584 0 000 1.167zm-11.084 0c.27 0 .522.066.75.176l1-1V8.75a.58.58 0 01.171-.413L14.176 2.5a1.72 1.72 0 01-.175-.75A1.751 1.751 0 0115.75 0c.964 0 1.75.785 1.75 1.75s-.786 1.75-1.75 1.75c-.27 0-.522-.066-.75-.176L9.334 8.991v5.592a.58.58 0 01-.171.412l-1.171 1.172c.11.228.175.48.175.75 0 .964-.785 1.75-1.75 1.75s-1.75-.786-1.75-1.75c0-.965.785-1.75 1.75-1.75zm9.334-12.833a.584.584 0 10-.002-1.167.584.584 0 00.002 1.167zM6.416 17.5a.584.584 0 10-.001-1.168.584.584 0 00.001 1.168zM1.167 8.274v-2.44a.58.58 0 01.171-.413l4.083-4.083a.583.583 0 01.413-.171h3.024A1.748 1.748 0 0110.5 0c.964 0 1.75.785 1.75 1.75S11.465 3.5 10.5 3.5c-.76 0-1.402-.49-1.643-1.167H6.075L2.334 6.075v2.199A1.748 1.748 0 013.5 9.917c0 .964-.785 1.75-1.75 1.75-.964 0-1.75-.786-1.75-1.75 0-.76.49-1.402 1.167-1.643zm9.333-5.94a.584.584 0 100-1.168.584.584 0 000 1.167zM1.75 10.5a.584.584 0 100-1.168.584.584 0 000 1.168zm7.583 21.107v-8.381a1.748 1.748 0 01-1.166-1.643c0-.965.785-1.75 1.75-1.75.76 0 1.401.49 1.643 1.167h6.048a1.748 1.748 0 011.642-1.167c.76 0 1.402.49 1.643 1.167h3.366l2.167-2.167a1.721 1.721 0 01-.175-.75c0-.965.785-1.75 1.75-1.75.964 0 1.75.785 1.75 1.75s-.786 1.75-1.75 1.75c-.27 0-.522-.066-.75-.176l-2.338 2.338a.582.582 0 01-.413.171h-3.607a1.748 1.748 0 01-1.643 1.167c-.759 0-1.4-.49-1.642-1.167h-6.049a1.748 1.748 0 01-1.06 1.06v8.381a1.747 1.747 0 011.168 1.643c0 .965-.786 1.75-1.75 1.75-.965 0-1.75-.785-1.75-1.75 0-.76.489-1.401 1.166-1.643zM28 18.667a.584.584 0 100-1.169.584.584 0 000 1.168zm-8.75 3.5a.584.584 0 100-1.168.584.584 0 000 1.167zM9.917 33.832a.584.584 0 10-.001-1.168.584.584 0 00.001 1.168zm0-11.667a.584.584 0 100-1.167.584.584 0 000 1.167z" fill="#00B2FF"/><path d="M12.25 11.774V9.917a.58.58 0 01.172-.413L19.426 2.5a1.722 1.722 0 01-.175-.75A1.751 1.751 0 0121 0c.76 0 1.4.49 1.642 1.167h2.441c.322 0 .583.26.583.583v1.508l2.167 2.167c.229-.11.48-.175.75-.175.965 0 1.75.785 1.75 1.75s-.785 1.75-1.75 1.75-1.75-.785-1.75-1.75c0-.27.066-.522.176-.75l-2.338-2.338A.58.58 0 0124.5 3.5V2.333h-1.858A1.748 1.748 0 0121.001 3.5c-.27 0-.522-.066-.75-.176l-6.834 6.834v1.616a1.748 1.748 0 011.167 1.642c0 .965-.785 1.75-1.75 1.75s-1.75-.785-1.75-1.75c0-.759.49-1.4 1.167-1.642zm16.334-4.19a.584.584 0 10-.001-1.169.584.584 0 00.001 1.168zm-7.583-5.25A.584.584 0 1021 1.165a.584.584 0 000 1.167zM12.834 14a.584.584 0 10-.001-1.168.584.584 0 00.001 1.168z" fill="#00B2FF"/><path d="M14 16.333c.76 0 1.402.49 1.643 1.167h6.866l3.33-3.33a.58.58 0 01.412-.17h6.175l1.408-1.408V7.825l-4.5-4.5c-.229.109-.48.175-.75.175-.965 0-1.75-.785-1.75-1.75S27.619 0 28.584 0s1.75.785 1.75 1.75c0 .27-.066.521-.176.75l4.672 4.67c.11.11.17.258.17.413v5.25a.581.581 0 01-.17.412l-1.75 1.75a.582.582 0 01-.413.171h-6.175l-3.33 3.33a.582.582 0 01-.412.17h-7.107A1.748 1.748 0 0114 19.833c-.964 0-1.75-.785-1.75-1.75s.786-1.75 1.75-1.75zM28.584 1.167a.584.584 0 10.001 1.167.584.584 0 00-.001-1.167zM14 18.667a.584.584 0 10-.002-1.169.584.584 0 00.002 1.168zM1.75 14c.27 0 .522.066.75.175l2.167-2.167V8.643A1.748 1.748 0 013.5 7c0-.965.785-1.75 1.75-1.75S7 6.035 7 7c0 .76-.49 1.401-1.166 1.643v3.607a.58.58 0 01-.171.412L3.325 15c.11.228.175.48.175.75 0 .76-.49 1.4-1.166 1.642v.45l4.495 4.495c.11.11.171.258.171.413v.69a1.748 1.748 0 011.167 1.643c0 .76-.49 1.401-1.167 1.643v1.382a1.748 1.748 0 011.167 1.642c0 .965-.785 1.75-1.75 1.75s-1.75-.785-1.75-1.75c0-.76.49-1.401 1.167-1.642v-1.382a1.748 1.748 0 01-1.167-1.643c0-.76.49-1.401 1.167-1.643v-.449l-4.496-4.495a.58.58 0 01-.171-.413v-.69A1.748 1.748 0 010 15.75C0 14.785.785 14 1.75 14zm3.5-6.417a.584.584 0 100-1.168.584.584 0 000 1.168zm1.167 22.75a.584.584 0 10-.001-1.168.584.584 0 00.001 1.168zm0-4.667a.584.584 0 10-.001-1.168.584.584 0 00.001 1.168zM1.75 16.333a.584.584 0 10-.001-1.168.584.584 0 00.001 1.168z" fill="#00B2FF"/></symbol><symbol id="icon-minus"><path d="M0 0h15v1H0V0z" fill="#F8FDFF"/></symbol><symbol id="icon-ok"><path d="M15.171 12.643c1.157 0 2.057-.965 2.036-2.014.021-1.05-.857-2.036-2.014-2.036-1.115 0-2.036.9-2.036 2.014 0 1.114.9 2.036 2.014 2.036z" fill="#F8FDFF"/><path d="M15 0C6.729 0 0 6.729 0 15c0 8.293 6.729 15 15 15 8.293 0 15-6.729 15-15 .021-8.271-6.707-15-15-15zm.214 5.679c2.7 0 4.929 2.228 4.907 4.95 0 2.742-2.25 4.95-4.992 4.907-2.7-.043-4.865-2.25-4.865-4.929a4.934 4.934 0 014.95-4.928zm5.507 11.571c0 .043-.021.064-.021.107a1.401 1.401 0 01-.643 1.007c-.236.15-.493.3-.75.429a9.662 9.662 0 01-2.036.75c-.085.021-.085.021-.021.086l1.178 1.178 1.5 1.5a1.43 1.43 0 01-.385 2.314c-.15.086-.322.108-.493.15h-.279c-.021 0-.043 0-.043-.021-.342-.043-.62-.214-.878-.45l-2.593-2.593c-.064-.064-.064-.064-.128 0l-2.615 2.614c-.15.15-.3.258-.493.343-.128.065-.278.086-.407.107h-.278c-.043 0-.065-.021-.107-.021-.579-.107-.965-.429-1.136-.986-.172-.557-.043-1.05.364-1.457l1.072-1.071 1.585-1.586c.064-.064.064-.064-.021-.086-.022 0-.065-.021-.086-.021a9.26 9.26 0 01-2.678-1.136c-.493-.321-.729-.793-.665-1.371a1.44 1.44 0 012.207-1.072c.172.107.322.193.515.279a6.1 6.1 0 003.128.643 6.069 6.069 0 001.607-.3c.515-.172.965-.407 1.436-.665a1.445 1.445 0 012.079.75c.043.129.064.236.085.365v.214z" fill="#F8FDFF"/></symbol><symbol id="icon-phone"><path d="M16.315 12.39c-.41-.427-.905-.655-1.43-.655-.519 0-1.018.224-1.445.65l-1.336 1.33c-.11-.06-.22-.114-.325-.17a5.407 5.407 0 01-.419-.223c-1.25-.793-2.388-1.828-3.479-3.166-.528-.667-.883-1.228-1.141-1.798.347-.316.668-.646.98-.962.12-.119.237-.24.356-.36.887-.886.887-2.034 0-2.92L6.922 2.963c-.131-.13-.267-.265-.393-.4-.254-.262-.52-.532-.795-.786-.41-.405-.9-.62-1.416-.62-.516 0-1.015.215-1.438.62l-.008.009-1.437 1.448a3.086 3.086 0 00-.918 1.962C.416 6.43.78 7.577 1.058 8.33c.685 1.844 1.708 3.554 3.234 5.386a19.89 19.89 0 006.624 5.18c.973.46 2.27 1.004 3.72 1.097.09.004.182.008.267.008.976 0 1.796-.35 2.439-1.047.004-.008.013-.012.017-.021.22-.266.473-.506.74-.764.181-.173.367-.355.55-.544.418-.435.637-.942.637-1.461 0-.523-.224-1.026-.65-1.448l-2.321-2.326zm1.513 4.444c-.004 0-.004.004 0 0-.165.177-.334.338-.516.515-.274.262-.553.536-.816.844-.426.456-.93.671-1.589.671-.063 0-.131 0-.194-.004-1.256-.08-2.423-.57-3.298-.988a18.775 18.775 0 01-6.24-4.88c-1.44-1.734-2.404-3.338-3.043-5.06-.393-1.051-.537-1.87-.473-2.643.042-.494.232-.903.583-1.253l1.442-1.44c.207-.194.427-.3.642-.3.266 0 .482.16.617.296l.013.013c.258.24.503.49.76.755.132.135.267.27.403.41l1.154 1.152c.448.448.448.861 0 1.309-.123.122-.241.244-.364.363-.355.363-.693.7-1.061 1.03-.008.008-.017.012-.021.02-.364.364-.296.718-.22.959l.013.038c.3.726.723 1.41 1.365 2.224l.004.005c1.167 1.435 2.397 2.554 3.754 3.41.173.11.351.199.52.283.152.076.296.148.419.224.017.008.034.021.05.03a.917.917 0 00.419.105c.35 0 .57-.22.642-.291l1.446-1.444c.144-.143.372-.316.638-.316.263 0 .478.164.61.308a.34.34 0 00.008.008l2.329 2.326c.435.43.435.874.004 1.321zM11.31 4.757a5.363 5.363 0 012.916 1.512A5.378 5.378 0 0115.74 9.18a.567.567 0 00.562.473c.034 0 .063-.004.097-.008a.57.57 0 00.47-.659 6.508 6.508 0 00-1.831-3.525 6.523 6.523 0 00-3.53-1.827.574.574 0 00-.66.464.564.564 0 00.461.658zm9.181 4.065a10.705 10.705 0 00-3.014-5.804 10.732 10.732 0 00-5.812-3.01.569.569 0 10-.186 1.124 9.61 9.61 0 015.195 2.688 9.559 9.559 0 012.693 5.188.567.567 0 00.562.473.56.56 0 00.562-.659z" fill="#00B2FF"/></symbol><symbol id="icon-plus"><path fill-rule="evenodd" clip-rule="evenodd" d="M7.969 7.031V0H7.03v7.031H0v.938h7.031V15h.938V7.969H15V7.03H7.969z" fill="#F8FDFF"/></symbol><symbol id="icon-popup-close"><path fill-rule="evenodd" clip-rule="evenodd" d="M.177 1.031a.604.604 0 01.854-.854l8.97 8.969 8.968-8.97a.604.604 0 01.854.855L10.854 10l8.97 8.969a.604.604 0 11-.855.854L10 10.854l-8.969 8.97a.604.604 0 11-.854-.855L9.146 10 .177 1.031z" fill="#fff"/></symbol><symbol id="icon-stopwatch"><path d="M3.848 11.662L2.054 10.19c-.975-.799-.975-2.1 0-2.9.975-.8 2.56-.8 3.535 0l1.916 1.572C9.503 7.72 11.78 6.93 14.167 6.55V4.51H12.5c-.46 0-.833-.305-.833-.683V2.051C11.667.92 12.788 0 14.167 0h6.666c1.379 0 2.5.92 2.5 2.05v1.778c0 .378-.373.684-.833.684h-1.667V6.55c2.386.379 4.664 1.17 6.662 2.31l1.916-1.57c.974-.8 2.56-.8 3.535 0 .975.799.975 2.1 0 2.9l-1.794 1.471C33.639 14.203 35 17.368 35 20.644 35 28.56 27.15 35 17.5 35S0 28.56 0 20.645c0-3.277 1.361-6.442 3.848-8.983zm.563-3.405a.969.969 0 00-1.179 0c-.324.267-.324.7 0 .967l1.722 1.412c.388-.327.795-.638 1.219-.934L4.41 8.257zm17.256-6.206c0-.377-.374-.684-.834-.684h-6.666c-.46 0-.834.307-.834.684v1.094h8.334V2.05zm-5.834 2.46v1.843a21.842 21.842 0 013.334 0V4.512h-3.334zm15.935 3.746a.969.969 0 00-1.179 0l-1.761 1.445c.423.296.83.607 1.218.934l1.722-1.412c.324-.267.324-.7 0-.967zM17.5 33.633c8.73 0 15.833-5.827 15.833-12.989 0-3.159-1.398-6.202-3.936-8.57-.7-.653-1.48-1.25-2.32-1.773-2.103-1.313-4.593-2.178-7.2-2.5a19.562 19.562 0 00-4.753 0c-2.608.322-5.098 1.187-7.202 2.5-.84.524-1.62 1.12-2.319 1.772-2.538 2.368-3.936 5.412-3.936 8.572 0 7.161 7.103 12.988 15.833 12.988z"/><path d="M17.5 22.695c-1.379 0-2.5-.92-2.5-2.05 0-.892.697-1.651 1.667-1.934V13.81c0-.378.373-.684.833-.684.46 0 .833.306.833.684v4.902c.97.283 1.667 1.043 1.667 1.934 0 1.13-1.121 2.05-2.5 2.05zm0-2.734c-.46 0-.833.306-.833.684 0 .377.373.683.833.683.46 0 .833-.306.833-.683 0-.378-.373-.684-.833-.684z"/><path d="M8.623 13.433a.596.596 0 01.04-.037l.05-.037c1.468-1.192 3.283-2.074 5.252-2.55.441-.108.905.1 1.035.461.13.362-.122.742-.563.85a11.75 11.75 0 00-3.98 1.78l.562.46c.325.268.325.7 0 .968a.932.932 0 01-.59.2.932.932 0 01-.59-.2l-.563-.462C7.77 16.303 6.873 18.074 6.7 19.96h.8c.46 0 .833.306.833.684 0 .377-.373.683-.833.683h-.801c.174 1.887 1.07 3.657 2.577 5.096l.564-.463a.968.968 0 011.179 0c.325.267.325.7 0 .967l-.564.462c1.753 1.237 3.912 1.972 6.212 2.115v-.657c0-.378.373-.684.833-.684.46 0 .833.306.833.684v.657c2.3-.143 4.459-.878 6.212-2.115l-.564-.462c-.325-.267-.325-.7 0-.967a.968.968 0 011.18 0l.563.463c1.508-1.439 2.403-3.21 2.577-5.096H27.5c-.46 0-.833-.306-.833-.683 0-.378.373-.684.833-.684h.801c-.174-1.887-1.07-3.657-2.577-5.095l-.564.462a.932.932 0 01-.589.2.932.932 0 01-.59-.2c-.325-.267-.325-.7 0-.967l.563-.461a11.745 11.745 0 00-3.98-1.78c-.442-.107-.694-.488-.564-.85s.593-.568 1.035-.462c1.97.477 3.783 1.359 5.252 2.55a.786.786 0 01.05.037l.04.037C28.714 15.367 30 17.926 30 20.645c0 2.718-1.286 5.277-3.623 7.211a.58.58 0 01-.04.037l-.045.033c-2.358 1.917-5.478 2.972-8.792 2.972s-6.433-1.055-8.792-2.971l-.045-.034c-.014-.011-.027-.024-.04-.036C6.286 25.922 5 23.363 5 20.645c0-2.719 1.286-5.278 3.623-7.212z"/><path d="M17.5 11.758c-.46 0-.833-.306-.833-.684 0-.377.373-.683.833-.683.46 0 .833.306.833.683 0 .377-.373.684-.833.684z"/></symbol><symbol id="icon-tag"><path d="M11.07 8.585a.689.689 0 00-.482-.2.689.689 0 00-.484.2.69.69 0 00-.2.483.686.686 0 001.167.483.69.69 0 00.2-.483.69.69 0 00-.2-.483z"/><path d="M34.8 2.859l-.845-.847.845-.845A.684.684 0 0033.833.2l-.844.845-.833-.834a.683.683 0 00-.484-.2L20.102.003H20.1c-.913 0-1.772.356-2.418 1.002L11.908 6.78a.684.684 0 00.967.967l5.774-5.774A2.04 2.04 0 0120.1 1.37h.002l11.286.007.634.634-2.537 2.537a2.805 2.805 0 00-3.419.422 2.783 2.783 0 00-.82 1.98c0 .748.291 1.452.82 1.98a2.792 2.792 0 001.98.82c.717 0 1.434-.273 1.98-.82a2.806 2.806 0 00.425-3.415l2.537-2.537.645.646-.007 11.273a2.04 2.04 0 01-.601 1.451L16.344 33.033a2.04 2.04 0 01-1.452.601 2.04 2.04 0 01-1.452-.601L1.97 21.559a2.04 2.04 0 01-.602-1.452c0-.548.214-1.064.602-1.452l7.368-7.37a.684.684 0 00-.966-.966L1 17.689a3.399 3.399 0 00-1 2.417c0 .914.356 1.773 1.002 2.42L12.473 34a3.41 3.41 0 002.419 1 3.41 3.41 0 002.419-1l16.68-16.684a3.4 3.4 0 001.003-2.417L35 3.342a.683.683 0 00-.2-.483zm-5.74 5.106c-.271.27-.631.42-1.014.42s-.742-.15-1.013-.42a1.435 1.435 0 011.013-2.447c.139 0 .277.02.41.06l-.789.789a.684.684 0 00.967.967l.787-.787a1.434 1.434 0 01-.361 1.418z"/><path d="M29.2 13.764l-7.966-7.967a2.71 2.71 0 00-3.828 0L4.799 18.406a2.69 2.69 0 00-.793 1.914c0 .723.282 1.403.793 1.914l7.967 7.968c.51.51 1.19.793 1.914.793.723 0 1.402-.282 1.913-.793L29.2 17.592a2.69 2.69 0 00.793-1.913 2.69 2.69 0 00-.793-1.915zm-.966 2.862L15.627 29.235a1.33 1.33 0 01-.947.392 1.33 1.33 0 01-.947-.392l-7.967-7.968a1.33 1.33 0 01-.392-.947c0-.358.139-.695.392-.948L18.373 6.764c.261-.262.604-.392.947-.392.343 0 .686.13.947.392l7.966 7.967c.253.253.393.59.393.948 0 .357-.14.694-.393.947z"/><path d="M22.29 13.677a.684.684 0 00-.966-.967l-.394.394c-1.051-.65-2.4-.563-3.252.29a2.48 2.48 0 00-.716 1.9 2.876 2.876 0 00.853 1.892c.55.55.611 1.384.137 1.859-.475.474-1.309.413-1.859-.137s-.61-1.384-.136-1.859a.684.684 0 00-.967-.967c-.853.853-.94 2.202-.29 3.253l-.468.467a.684.684 0 00.968.967l.467-.467c.46.283.975.427 1.482.427.652 0 1.29-.238 1.77-.717 1.007-1.008.946-2.709-.137-3.792a1.512 1.512 0 01-.454-.991 1.13 1.13 0 01.317-.868c.474-.475 1.308-.413 1.858.137s.611 1.384.137 1.858a.684.684 0 00.966.967c.853-.852.94-2.201.29-3.252l.394-.394zm-6.918 11.335L11.86 21.5a.684.684 0 00-.967.967l3.51 3.512a.682.682 0 00.968 0 .684.684 0 000-.967zm-5.384-5.385a.688.688 0 00-.483-.2.69.69 0 00-.484.2.689.689 0 00-.2.484c0 .18.073.356.2.483a.687.687 0 001.168-.483.688.688 0 00-.201-.484z"/></symbol><symbol id="icon-vk"><path d="M21.617 17.454c-1.235-1.181-1.323-1.181-.265-2.545C22.676 13.182 24.44 11 22.852 11h-2.911c-.53 0-.618.364-.794.818-.706 1.728-2.118 4-2.647 3.636-.53-.363-.265-1.727-.265-3.908a.722.722 0 00-.177-.728c-.176-.181-.44-.363-.706-.363-.44-.091-.882-.182-1.323-.182-1.676 0-2.823.727-2.206.818 1.147.182 1.059 2.727.794 3.818-.44 1.91-2.206-1.454-3-3.182A.865.865 0 008.735 11H6.441c-.353 0-.618.091-.618.364 0 .454 2.206 4.909 4.236 7.181 2.029 2.182 4.058 2 5.47 2 .176 0 .353-.09.441-.182a.706.706 0 00.177-.454c0-1.455.529-2.182 1.5-1.182 1.058 1.09 1.323 1.818 2.647 1.818h2.382c.617 0 .794-.182.794-.454.088-.637-.97-1.819-1.853-2.637zM15.352.001C23.558.183 30.087 7 30 15.273c-.088 8.272-6.882 14.817-15.088 14.726C6.617 29.91 0 23.272 0 15 .088 6.637 6.97-.09 15.352 0z" fill="#F8FDFF"/></symbol></svg>